<svg width="24" height="24" viewBox="0 0 19 15" fill="none" xmlns="http://www.w3.org/2000/svg">
<path d="M6.83301 13.418H17.333" stroke="#1352DE" stroke-width="1.5" stroke-linecap="round" stroke-linejoin="round"/>
<path d="M1.58301 5.22952V1.39193C1.58301 1.2995 1.60497 1.20839 1.64709 1.12611C1.68921 1.04384 1.75028 0.972748 1.82526 0.918703C1.90024 0.864658 1.987 0.829205 2.07837 0.815265C2.16974 0.801326 2.26312 0.8093 2.35081 0.838529L3.33301 1.16593L4.49967 3.35343L6.83301 4.08259V1.39193C6.83301 1.2995 6.85497 1.20839 6.89709 1.12611C6.93921 1.04384 7.00028 0.972748 7.07526 0.918703C7.15024 0.864658 7.237 0.829205 7.32837 0.815265C7.41974 0.801326 7.51312 0.8093 7.60081 0.838529L8.58301 1.16593L10.9163 5.24926L14.4575 6.23292C14.9489 6.36942 15.382 6.66315 15.6906 7.06917C15.9993 7.47519 16.1663 7.97113 16.1663 8.48113V11.0826L3.2872 7.47644C2.79689 7.33915 2.36495 7.04525 2.05725 6.63957C1.74956 6.23388 1.58301 5.73869 1.58301 5.22952V5.22952Z" stroke="#1352DE" stroke-width="1.5" stroke-linecap="round" stroke-linejoin="round"/>
</svg>
