<svg width="24" height="24" viewBox="0 0 19 14" fill="none" xmlns="http://www.w3.org/2000/svg">
<path d="M1.6875 12.1875H11.8125" stroke="#1352DE" stroke-width="1.5" stroke-linecap="round" stroke-linejoin="round"/>
<path d="M1.19048 6.87096L3.84093 9.35576C4.19407 9.68683 4.64456 9.89518 5.12551 9.94989C5.60646 10.0046 6.09223 9.90274 6.5107 9.65944L17.1565 3.47L15.846 1.86819C15.506 1.45263 15.0286 1.17236 14.5 1.078C13.9714 0.983631 13.4266 1.08139 12.9638 1.35362L9.84404 3.18875L5.62529 1.7825L4.4652 2.27968C4.37841 2.31688 4.30238 2.37533 4.24412 2.44964C4.18586 2.52395 4.14724 2.61173 4.13183 2.70489C4.11641 2.79805 4.1247 2.89359 4.15592 2.9827C4.18715 3.07182 4.2403 3.15164 4.31049 3.21481L6.46904 5.1575L4.50029 6.2825L2.53154 5.43875L1.35362 5.94358C1.26771 5.98039 1.19234 6.03803 1.1343 6.11129C1.07626 6.18454 1.03739 6.2711 1.0212 6.36314C1.00501 6.45519 1.01201 6.54982 1.04156 6.63848C1.07112 6.72714 1.1223 6.80704 1.19048 6.87096V6.87096Z" stroke="#1352DE" stroke-width="1.5" stroke-linecap="round" stroke-linejoin="round"/>
</svg>
