<svg width="24" height="24" viewBox="0 0 24 24" fill="none" xmlns="http://www.w3.org/2000/svg">
<path d="M20.25 6.75H3.75C3.33579 6.75 3 7.08579 3 7.5V21C3 21.4142 3.33579 21.75 3.75 21.75H20.25C20.6642 21.75 21 21.4142 21 21V7.5C21 7.08579 20.6642 6.75 20.25 6.75Z" stroke="#1352DE" stroke-width="1.5" stroke-linecap="round" stroke-linejoin="round"/>
<path d="M16.5 3V6" stroke="#1352DE" stroke-width="1.5" stroke-linecap="round" stroke-linejoin="round"/>
<path d="M7.5 3V6" stroke="#1352DE" stroke-width="1.5" stroke-linecap="round" stroke-linejoin="round"/>
<path d="M3.75 10H20.25" stroke="#1352DE" stroke-width="1.5" stroke-linecap="round" stroke-linejoin="round"/>
<path d="M11.7005 19.0492H7.13316V18.0638L9.23704 15.8534C9.75636 15.2675 10.0094 14.8015 10.0094 14.4553C10.0094 14.1756 9.94278 13.9626 9.82293 13.8161C9.70309 13.6696 9.51667 13.5898 9.29031 13.5898C9.06394 13.5898 8.87752 13.683 8.73104 13.8827C8.58457 14.0824 8.51799 14.3221 8.51799 14.6151H7C7 14.2156 7.10653 13.8428 7.30626 13.5099C7.506 13.177 7.78563 12.9107 8.14515 12.7109C8.50468 12.5245 8.90415 12.418 9.34357 12.418C10.0493 12.418 10.5952 12.5778 10.9681 12.9107C11.3542 13.2302 11.5407 13.7096 11.5407 14.3088C11.5407 14.5618 11.4874 14.8148 11.3942 15.0545C11.301 15.2942 11.1545 15.5605 10.9415 15.8268C10.7417 16.0931 10.4088 16.4526 9.96941 16.9054L9.13052 17.8774H11.7005V19.0492Z" fill="#1352DE"/>
<path d="M12.5527 15.854L12.9522 12.5117H16.7738V13.6835H14.1905L14.0441 14.9751C14.1506 14.9085 14.2971 14.8553 14.4702 14.802C14.6433 14.7488 14.8164 14.7354 14.9895 14.7354C15.642 14.7354 16.1346 14.9219 16.4808 15.308C16.8271 15.6942 17.0002 16.2268 17.0002 16.9192C17.0002 17.332 16.9069 17.7182 16.7205 18.0511C16.5341 18.384 16.2678 18.6503 15.9349 18.8367C15.602 19.0231 15.2025 19.1163 14.7365 19.1163C14.3237 19.1163 13.9375 19.0364 13.578 18.8633C13.2185 18.6902 12.9389 18.4639 12.7391 18.1709C12.5394 17.878 12.4329 17.5451 12.4329 17.1722H13.9509C13.9642 17.4119 14.0441 17.5983 14.1772 17.7448C14.3104 17.8913 14.4968 17.9579 14.7232 17.9579C15.2292 17.9579 15.4822 17.585 15.4822 16.826C15.4822 16.1336 15.1759 15.7874 14.5501 15.7874C14.1905 15.7874 13.9375 15.9072 13.7644 16.1336L12.5527 15.854Z" fill="#1352DE"/>
</svg>
