<svg width="62" height="62" viewBox="0 0 62 62" fill="none" xmlns="http://www.w3.org/2000/svg">
<path d="M31 0C24.8688 0 18.8753 1.81812 13.7773 5.22444C8.67941 8.63076 4.70606 13.4723 2.35975 19.1368C0.0134318 24.8013 -0.600471 31.0344 0.59567 37.0478C1.79181 43.0612 4.74427 48.5849 9.0797 52.9203C13.4151 57.2557 18.9388 60.2082 24.9522 61.4043C30.9656 62.6005 37.1987 61.9866 42.8632 59.6403C48.5277 57.2939 53.3692 53.3206 56.7756 48.2227C60.1819 43.1247 62 37.1312 62 31C61.9905 22.7812 58.7214 14.9017 52.9098 9.09018C47.0983 3.27861 39.2188 0.00949914 31 0ZM42.2245 38.8525C42.4463 39.0738 42.6223 39.3367 42.7424 39.626C42.8625 39.9154 42.9245 40.2257 42.9246 40.539C42.9248 40.8523 42.8632 41.1626 42.7434 41.4521C42.6235 41.7416 42.4478 42.0047 42.2263 42.2262C42.0047 42.4478 41.7416 42.6235 41.4521 42.7434C41.1626 42.8632 40.8523 42.9248 40.539 42.9246C40.2257 42.9244 39.9154 42.8625 39.626 42.7424C39.3367 42.6222 39.0738 42.4462 38.8525 42.2245L31 34.372L23.1475 42.2245C22.7002 42.6708 22.094 42.9214 21.4621 42.921C20.8301 42.9207 20.2242 42.6695 19.7773 42.2227C19.3305 41.7758 19.0793 41.1699 19.079 40.5379C19.0786 39.906 19.3292 39.2998 19.7756 38.8525L27.628 31L19.7756 23.1475C19.3292 22.7002 19.0786 22.094 19.079 21.4621C19.0793 20.8301 19.3305 20.2242 19.7773 19.7773C20.2242 19.3305 20.8301 19.0793 21.4621 19.079C22.094 19.0786 22.7002 19.3292 23.1475 19.7755L31 27.628L38.8525 19.7755C39.2998 19.3292 39.906 19.0786 40.5379 19.079C41.1699 19.0793 41.7758 19.3305 42.2227 19.7773C42.6695 20.2242 42.9207 20.8301 42.921 21.4621C42.9214 22.094 42.6708 22.7002 42.2245 23.1475L34.372 31L42.2245 38.8525Z" fill="#E81944"/>
</svg>
