<svg width="24" height="24" viewBox="0 0 24 24" fill="none" xmlns="http://www.w3.org/2000/svg">
<path d="M14.25 10.5H18" stroke="#1352DE" stroke-width="1.5" stroke-linecap="round" stroke-linejoin="round"/>
<path d="M14.25 13.5H18" stroke="#1352DE" stroke-width="1.5" stroke-linecap="round" stroke-linejoin="round"/>
<path d="M8.63544 13.5C9.87808 13.5 10.8854 12.4926 10.8854 11.25C10.8854 10.0074 9.87808 9 8.63544 9C7.3928 9 6.38544 10.0074 6.38544 11.25C6.38544 12.4926 7.3928 13.5 8.63544 13.5Z" stroke="#1352DE" stroke-width="1.5" stroke-linecap="round" stroke-linejoin="round"/>
<path d="M5.72919 15.75C5.89564 15.106 6.27133 14.5355 6.79723 14.1283C7.32312 13.721 7.96941 13.5 8.63456 13.5C9.29971 13.5 9.94601 13.7209 10.4719 14.1282C10.9979 14.5354 11.3736 15.1058 11.5401 15.7498" stroke="#1352DE" stroke-width="1.5" stroke-linecap="round" stroke-linejoin="round"/>
<path d="M20.25 4.5H3.75C3.33579 4.5 3 4.83579 3 5.25V18.75C3 19.1642 3.33579 19.5 3.75 19.5H20.25C20.6642 19.5 21 19.1642 21 18.75V5.25C21 4.83579 20.6642 4.5 20.25 4.5Z" stroke="#1352DE" stroke-width="1.5" stroke-linecap="round" stroke-linejoin="round"/>
</svg>
