<svg width="60" height="32" viewBox="0 0 60 32" fill="none" xmlns="http://www.w3.org/2000/svg">
<path d="M15.2985 11.9686L17.9652 18.0753H12.5074L15.2985 11.9686ZM14.8185 7.02344L6.45703 24.9879H9.37851L11.3815 20.6234H19.0704L20.9548 24.9879H23.9207L15.8555 7.02344H14.8185Z" fill="#001871"/>
<path d="M29.4553 24.9879H26.7441V7.02344H29.4553V23.9034V24.9879Z" fill="#001871"/>
<path d="M43.6753 15.6319H51.0975V16.2245C51.0975 17.5726 50.9405 18.7697 50.6205 19.8067C50.3124 20.7697 49.7879 21.6674 49.0501 22.5059C47.382 24.3845 45.2605 25.3208 42.6857 25.3208C40.1109 25.3208 38.019 24.4141 36.2294 22.6008C34.4368 20.7785 33.542 18.5889 33.542 16.0378C33.542 13.4867 34.4546 11.22 36.2768 9.40669C38.099 7.58447 40.3153 6.67188 42.9316 6.67188C44.3361 6.67188 45.6457 6.95632 46.8635 7.52817C48.0279 8.10002 49.1716 9.02743 50.2946 10.3134L48.3627 12.1622C46.8901 10.2008 45.0916 9.22002 42.9761 9.22002C41.0768 9.22002 39.4798 9.87484 38.1938 11.1874C36.9079 12.4763 36.262 14.0882 36.262 16.0259C36.262 17.9637 36.979 19.6763 38.4161 20.9711C39.7583 22.1741 41.2131 22.7756 42.7775 22.7756C44.1109 22.7756 45.3079 22.3252 46.3716 21.4304C47.4324 20.5267 48.0279 19.4422 48.1524 18.18H43.6724V15.6319H43.6753Z" fill="#001871"/>
<path d="M2.46222 2.46815H56.7111V29.5319H2.46222V2.46815ZM0 32H59.1733V0H0V32Z" fill="#001871"/>
</svg>
