<svg width="24" height="24" viewBox="0 0 24 24" fill="none" xmlns="http://www.w3.org/2000/svg">
<g clip-path="url(#clip0_737_18450)">
<path d="M19.3486 23.2465L18.7213 14.5063C18.6593 13.642 18.1081 12.9278 17.3583 12.6133C17.5404 11.9994 17.3898 11.3093 16.9123 10.8259L11.582 5.43C12.7093 4.99112 13.375 3.88582 13.375 2.92822C13.4401 1.37602 12.2356 0.0676067 10.6826 0.00268552C8.30708 -0.0973447 6.90464 2.61894 8.31219 4.4934C6.03737 5.22718 4.66793 7.38064 4.6632 9.31154L4.64942 16.236C4.64867 16.622 4.96052 16.9406 5.35371 16.9406L6.48859 16.9386L6.47752 23.2613C6.47687 23.6494 6.79121 23.965 7.17956 23.9656C7.17961 23.9656 9.94423 23.9699 9.94423 23.9699C10.297 23.9699 10.5952 23.7084 10.6413 23.3586L12.1866 11.63C14.671 13.6542 14.4952 13.513 14.5654 13.5637C14.1789 14.2382 14.277 14.7881 14.3215 15.4085C14.3493 15.7958 14.6865 16.0875 15.0731 16.0595C15.4605 16.0317 15.7519 15.6952 15.7241 15.3079C15.6827 14.73 15.6075 14.4442 15.8802 14.1296C16.3554 13.5815 17.2665 13.8797 17.3187 14.607L17.9459 23.3471C17.9738 23.7348 18.3108 24.026 18.6976 23.9981C19.085 23.9704 19.3764 23.6339 19.3486 23.2465ZM10.6239 1.4077C11.3922 1.43986 12.0029 2.08626 11.9701 2.86934C11.9176 4.11817 10.3728 4.67668 9.52971 3.7609C8.68574 2.84394 9.37475 1.356 10.6239 1.4077ZM9.32778 22.5627L7.88503 22.5605L7.89487 16.9362L10.0696 16.9325L9.32778 22.5627ZM10.0615 8.08465C9.76052 7.8394 9.31756 7.88454 9.07227 8.18562C8.82702 8.48664 8.8722 8.92956 9.17323 9.17486L10.9057 10.5864L10.2549 15.526L6.05701 15.5331L6.06939 9.32893C6.1615 7.29997 7.81725 5.70178 9.82198 5.64942L15.9117 11.8141C16.0612 11.9655 16.0668 12.2078 15.9245 12.3659C15.7801 12.5262 15.5358 12.5451 15.3685 12.4087L10.0615 8.08465Z" fill="#1352DE"/>
</g>
<defs>
<clipPath id="clip0_737_18450">
<rect width="24" height="24" fill="white"/>
</clipPath>
</defs>
</svg>
