<svg width="20" height="21" viewBox="0 0 20 21" fill="none" xmlns="http://www.w3.org/2000/svg">
<path d="M1.63232 7.88086V2.38086C1.63232 2.18195 1.71134 1.99118 1.85199 1.85053C1.99265 1.70988 2.18341 1.63086 2.38232 1.63086H17.3823C17.5812 1.63086 17.772 1.70988 17.9127 1.85053C18.0533 1.99118 18.1323 2.18195 18.1323 2.38086V7.88086C18.1323 15.7573 11.4474 18.3668 10.1126 18.8094C9.96338 18.8607 9.80127 18.8607 9.65205 18.8094C8.31726 18.3668 1.63232 15.7573 1.63232 7.88086Z" stroke="#1352DE" stroke-width="1.5" stroke-linecap="round" stroke-linejoin="round"/>
<path d="M10.046 11.0549C11.1987 11.0549 12.1331 10.1205 12.1331 8.9679C12.1331 7.81526 11.1987 6.88086 10.046 6.88086C8.89338 6.88086 7.95898 7.81526 7.95898 8.9679C7.95898 10.1205 8.89338 11.0549 10.046 11.0549Z" stroke="#1352DE" stroke-width="1.5" stroke-miterlimit="10"/>
<path d="M6.88232 12.8805C7.20306 12.3254 7.66425 11.8644 8.21956 11.5439C8.77486 11.2234 9.40473 11.0547 10.0459 11.0547C10.687 11.0547 11.3169 11.2234 11.8722 11.5439C12.4275 11.8644 12.8887 12.3254 13.2094 12.8806" stroke="#1352DE" stroke-width="1.5" stroke-linecap="round" stroke-linejoin="round"/>
</svg>
