<svg width="21" height="21" viewBox="0 0 21 21" fill="none" xmlns="http://www.w3.org/2000/svg">
<path d="M10.9724 1.45907L18.1137 2.88732L19.5419 10.0286C19.5648 10.143 19.5591 10.2612 19.5253 10.3728C19.4915 10.4844 19.4307 10.5859 19.3482 10.6684L10.0998 19.9168C10.034 19.9826 9.95591 20.0348 9.86998 20.0704C9.78404 20.106 9.69193 20.1243 9.59891 20.1243C9.50589 20.1243 9.41378 20.106 9.32784 20.0704C9.2419 20.0348 9.16382 19.9826 9.09804 19.9168L1.08416 11.9029C1.01839 11.8372 0.966214 11.7591 0.930616 11.6731C0.895019 11.5872 0.876698 11.4951 0.876698 11.4021C0.876698 11.309 0.895019 11.2169 0.930616 11.131C0.966214 11.0451 1.01839 10.967 1.08416 10.9012L10.3326 1.65278C10.415 1.57032 10.5166 1.5095 10.6282 1.47571C10.7398 1.44191 10.858 1.4362 10.9724 1.45907V1.45907Z" stroke="#1352DE" stroke-width="1.5" stroke-linecap="round" stroke-linejoin="round"/>
<path d="M14.3955 7.66797C13.8087 7.66797 13.333 7.19227 13.333 6.60547C13.333 6.01867 13.8087 5.54297 14.3955 5.54297C14.9823 5.54297 15.458 6.01867 15.458 6.60547C15.458 7.19227 14.9823 7.66797 14.3955 7.66797Z" fill="#1352DE"/>
<path d="M9.28516 9.08203V9.89156" stroke="#1352DE" stroke-width="1.5" stroke-linecap="round" stroke-linejoin="round"/>
<path d="M9.28516 13.9375V14.747" stroke="#1352DE" stroke-width="1.5" stroke-linecap="round" stroke-linejoin="round"/>
<path d="M8.07175 13.9382H9.89318C10.1616 13.9382 10.4189 13.8316 10.6087 13.6419C10.7985 13.4521 10.9051 13.1947 10.9051 12.9263C10.9051 12.658 10.7985 12.4006 10.6087 12.2108C10.4189 12.021 10.1616 11.9144 9.89318 11.9144H8.6789C8.41052 11.9144 8.15314 11.8078 7.96337 11.6181C7.7736 11.4283 7.66699 11.1709 7.66699 10.9025C7.66699 10.6342 7.7736 10.3768 7.96337 10.187C8.15314 9.99724 8.41052 9.89062 8.6789 9.89062H10.5003" stroke="#1352DE" stroke-width="1.5" stroke-linecap="round" stroke-linejoin="round"/>
</svg>
