<svg width="62" height="62" viewBox="0 0 62 62" fill="none" xmlns="http://www.w3.org/2000/svg">
<path d="M31 0C24.8688 0 18.8753 1.81812 13.7773 5.22444C8.67941 8.63076 4.70606 13.4723 2.35975 19.1368C0.0134318 24.8013 -0.600471 31.0344 0.59567 37.0478C1.79181 43.0612 4.74427 48.5849 9.0797 52.9203C13.4151 57.2557 18.9388 60.2082 24.9522 61.4043C30.9656 62.6005 37.1987 61.9866 42.8632 59.6403C48.5277 57.2939 53.3692 53.3206 56.7756 48.2227C60.1819 43.1247 62 37.1312 62 31C61.9905 22.7812 58.7214 14.9017 52.9098 9.09018C47.0983 3.27861 39.2188 0.00949914 31 0ZM45.7641 25.5717L28.2754 42.264C27.8307 42.6871 27.2404 42.9231 26.6267 42.9231C26.0129 42.9231 25.4226 42.6871 24.9779 42.264L16.2359 33.9179C15.7792 33.4804 15.5148 32.8795 15.5008 32.2472C15.4868 31.6149 15.7243 31.0029 16.1612 30.5457C16.5981 30.0884 17.1987 29.8232 17.831 29.8084C18.4632 29.7936 19.0755 30.0304 19.5334 30.4667L26.6267 37.241L42.4667 22.1206C42.9245 21.6842 43.5368 21.4475 44.1691 21.4623C44.8013 21.4771 45.4019 21.7422 45.8388 22.1995C46.2757 22.6568 46.5132 23.2688 46.4992 23.9011C46.4852 24.5334 46.2208 25.1342 45.7641 25.5717Z" fill="#00AA63"/>
</svg>
