<svg width="24" height="24" viewBox="0 0 24 24" fill="none" xmlns="http://www.w3.org/2000/svg">
<path d="M12.4997 2.42472L20.0611 3.93699L21.5733 11.4984C21.5975 11.6194 21.5915 11.7446 21.5557 11.8628C21.5199 11.9809 21.4555 12.0885 21.3682 12.1758L11.5758 21.9682C11.5061 22.0379 11.4234 22.0931 11.3325 22.1308C11.2415 22.1685 11.1439 22.1879 11.0454 22.1879C10.947 22.1879 10.8494 22.1685 10.7584 22.1308C10.6674 22.0931 10.5848 22.0379 10.5151 21.9682L2.02983 13.4829C1.96019 13.4133 1.90494 13.3306 1.86725 13.2396C1.82956 13.1486 1.81016 13.0511 1.81016 12.9526C1.81016 12.8541 1.82956 12.7566 1.86725 12.6656C1.90494 12.5746 1.96019 12.4919 2.02983 12.4223L11.8223 2.62983C11.9096 2.54252 12.0171 2.47812 12.1353 2.44234C12.2534 2.40656 12.3786 2.40051 12.4997 2.42472V2.42472Z" stroke="#1352DE" stroke-width="1.5" stroke-linecap="round" stroke-linejoin="round"/>
<path d="M11.5 10C12.3271 10 13 9.3271 13 8.5C13 7.6729 12.3271 7 11.5 7C10.6729 7 10 7.6729 10 8.5C10 9.3271 10.6729 10 11.5 10ZM11.5 7.95471C11.8006 7.95471 12.0453 8.19932 12.0453 8.49997C12.0453 8.80062 11.8006 9.04522 11.5 9.04522C11.1994 9.04522 10.9547 8.80062 10.9547 8.49997C10.9547 8.19932 11.1994 7.95471 11.5 7.95471Z" fill="#1352DE"/>
<path d="M11.3828 14.3281C10.5557 14.3281 9.88281 15.001 9.88281 15.8281C9.88281 16.6552 10.5557 17.3281 11.3828 17.3281C12.2099 17.3281 12.8828 16.6552 12.8828 15.8281C12.8828 15.001 12.2099 14.3281 11.3828 14.3281ZM11.3828 16.3734C11.0822 16.3734 10.8376 16.1288 10.8376 15.8282C10.8376 15.5275 11.0822 15.2829 11.3828 15.2829C11.6835 15.2829 11.9281 15.5275 11.9281 15.8282C11.9281 16.1288 11.6835 16.3734 11.3828 16.3734Z" fill="#1352DE"/>
<path d="M14.0878 11.6055H8.43945C8.19676 11.6055 8 11.9413 8 12.3555C8 12.7697 8.19676 13.1055 8.43945 13.1055H14.0878C14.3305 13.1055 14.5273 12.7697 14.5273 12.3555C14.5273 11.9413 14.3306 11.6055 14.0878 11.6055Z" fill="#1352DE"/>
<path d="M18.125 7.25C17.5037 7.25 17 6.74632 17 6.125C17 5.50368 17.5037 5 18.125 5C18.7463 5 19.25 5.50368 19.25 6.125C19.25 6.74632 18.7463 7.25 18.125 7.25Z" fill="#1352DE"/>
</svg>
