<svg width="24" height="24" viewBox="0 0 24 24" fill="none" xmlns="http://www.w3.org/2000/svg">
<path d="M20.25 4H3.75C3.33579 4 3 4.33579 3 4.75V18.25C3 18.6642 3.33579 19 3.75 19H20.25C20.6642 19 21 18.6642 21 18.25V4.75C21 4.33579 20.6642 4 20.25 4Z" stroke="#1352DE" stroke-width="1.5" stroke-linecap="round" stroke-linejoin="round"/>
<path d="M6.63405 13.9049L6.0512 13.5103L6.71405 12.4649L5.54834 11.9849L5.76548 11.3449L7.0112 11.6116L7.13691 10.4062H7.85691L7.98263 11.6116L9.23977 11.3449L9.45691 11.9849L8.27977 12.4649L8.94263 13.5103L8.35977 13.9049L7.50263 12.9769L6.63405 13.9049Z" fill="#1352DE"/>
<path d="M11.0857 13.9049L10.5029 13.5103L11.1657 12.4649L10 11.9849L10.2171 11.3449L11.4629 11.6116L11.5886 10.4062H12.3086L12.4343 11.6116L13.6914 11.3449L13.9086 11.9849L12.7314 12.4649L13.3943 13.5103L12.8114 13.9049L11.9543 12.9769L11.0857 13.9049Z" fill="#1352DE"/>
<path d="M15.6343 13.9049L15.0514 13.5103L15.7143 12.4649L14.5486 11.9849L14.7657 11.3449L16.0114 11.6116L16.1372 10.4062H16.8572L16.9829 11.6116L18.24 11.3449L18.4572 11.9849L17.28 12.4649L17.9429 13.5103L17.36 13.9049L16.5029 12.9769L15.6343 13.9049Z" fill="#1352DE"/>
</svg>
